<?xml version="1.0" encoding="UTF-8" standalone="no"?>
<!-- Created with Inkscape (http://www.inkscape.org/) -->

<svg
   xmlns:dc="http://purl.org/dc/elements/1.1/"
   xmlns:cc="http://creativecommons.org/ns#"
   xmlns:rdf="http://www.w3.org/1999/02/22-rdf-syntax-ns#"
   xmlns:svg="http://www.w3.org/2000/svg"
   xmlns="http://www.w3.org/2000/svg"
   xmlns:sodipodi="http://sodipodi.sourceforge.net/DTD/sodipodi-0.dtd"
   xmlns:inkscape="http://www.inkscape.org/namespaces/inkscape"
   id="svg2"
   version="1.1"
   inkscape:version="0.91 r13725"
   xml:space="preserve"
   width="680.18097"
   height="216.92734"
   viewBox="0 0 680.18097 216.92734"
   sodipodi:docname="UserSurveyNew.svg"><metadata
     id="metadata8"><rdf:RDF><cc:Work
         rdf:about=""><dc:format>image/svg+xml</dc:format><dc:type
           rdf:resource="http://purl.org/dc/dcmitype/StillImage" /><dc:title></dc:title></cc:Work></rdf:RDF></metadata><defs
     id="defs6"><clipPath
       clipPathUnits="userSpaceOnUse"
       id="clipPath20"><path
         d="m 239.77812,39.621875 194.40001,0 0,126.720005 -194.40001,0 0,-126.720005 z"
         id="path22"
         inkscape:connector-curvature="0" /></clipPath><clipPath
       clipPathUnits="userSpaceOnUse"
       id="clipPath30"><path
         d="m 239.77812,39.621875 194.40001,0 0,126.720005 -194.40001,0 0,-126.720005 z"
         id="path32"
         inkscape:connector-curvature="0" /></clipPath><clipPath
       clipPathUnits="userSpaceOnUse"
       id="clipPath40"><path
         d="m 239.77812,39.621875 194.40001,0 0,126.720005 -194.40001,0 0,-126.720005 z"
         id="path42"
         inkscape:connector-curvature="0" /></clipPath><clipPath
       clipPathUnits="userSpaceOnUse"
       id="clipPath50"><path
         d="m 239.77812,39.621875 194.40001,0 0,126.720005 -194.40001,0 0,-126.720005 z"
         id="path52"
         inkscape:connector-curvature="0" /></clipPath><clipPath
       clipPathUnits="userSpaceOnUse"
       id="clipPath60"><path
         d="m 239.77812,39.621875 194.40001,0 0,126.720005 -194.40001,0 0,-126.720005 z"
         id="path62"
         inkscape:connector-curvature="0" /></clipPath><clipPath
       clipPathUnits="userSpaceOnUse"
       id="clipPath70"><path
         d="m 239.77812,39.621875 194.40001,0 0,126.720005 -194.40001,0 0,-126.720005 z"
         id="path72"
         inkscape:connector-curvature="0" /></clipPath><clipPath
       clipPathUnits="userSpaceOnUse"
       id="clipPath80"><path
         d="m 239.77812,39.621875 194.40001,0 0,126.720005 -194.40001,0 0,-126.720005 z"
         id="path82"
         inkscape:connector-curvature="0" /></clipPath><clipPath
       clipPathUnits="userSpaceOnUse"
       id="clipPath90"><path
         d="m 239.77812,39.621875 194.40001,0 0,126.720005 -194.40001,0 0,-126.720005 z"
         id="path92"
         inkscape:connector-curvature="0" /></clipPath><clipPath
       clipPathUnits="userSpaceOnUse"
       id="clipPath100"><path
         d="m 239.77812,39.621875 194.40001,0 0,126.720005 -194.40001,0 0,-126.720005 z"
         id="path102"
         inkscape:connector-curvature="0" /></clipPath><clipPath
       clipPathUnits="userSpaceOnUse"
       id="clipPath110"><path
         d="m 239.77812,39.621875 194.40001,0 0,126.720005 -194.40001,0 0,-126.720005 z"
         id="path112"
         inkscape:connector-curvature="0" /></clipPath><clipPath
       clipPathUnits="userSpaceOnUse"
       id="clipPath120"><path
         d="m 239.77812,39.621875 194.40001,0 0,126.720005 -194.40001,0 0,-126.720005 z"
         id="path122"
         inkscape:connector-curvature="0" /></clipPath><clipPath
       clipPathUnits="userSpaceOnUse"
       id="clipPath130"><path
         d="m 239.77812,39.621875 194.40001,0 0,126.720005 -194.40001,0 0,-126.720005 z"
         id="path132"
         inkscape:connector-curvature="0" /></clipPath><clipPath
       clipPathUnits="userSpaceOnUse"
       id="clipPath140"><path
         d="m 239.77812,39.621875 194.40001,0 0,126.720005 -194.40001,0 0,-126.720005 z"
         id="path142"
         inkscape:connector-curvature="0" /></clipPath><clipPath
       clipPathUnits="userSpaceOnUse"
       id="clipPath150"><path
         d="m 239.77812,39.621875 194.40001,0 0,126.720005 -194.40001,0 0,-126.720005 z"
         id="path152"
         inkscape:connector-curvature="0" /></clipPath><clipPath
       clipPathUnits="userSpaceOnUse"
       id="clipPath160"><path
         d="m 239.77812,39.621875 194.40001,0 0,126.720005 -194.40001,0 0,-126.720005 z"
         id="path162"
         inkscape:connector-curvature="0" /></clipPath><clipPath
       clipPathUnits="userSpaceOnUse"
       id="clipPath170"><path
         d="m 239.77812,39.621875 194.40001,0 0,126.720005 -194.40001,0 0,-126.720005 z"
         id="path172"
         inkscape:connector-curvature="0" /></clipPath><clipPath
       clipPathUnits="userSpaceOnUse"
       id="clipPath180"><path
         d="m 239.77812,39.621875 194.40001,0 0,126.720005 -194.40001,0 0,-126.720005 z"
         id="path182"
         inkscape:connector-curvature="0" /></clipPath><clipPath
       clipPathUnits="userSpaceOnUse"
       id="clipPath190"><path
         d="m 239.77812,39.621875 194.40001,0 0,126.720005 -194.40001,0 0,-126.720005 z"
         id="path192"
         inkscape:connector-curvature="0" /></clipPath><clipPath
       clipPathUnits="userSpaceOnUse"
       id="clipPath200"><path
         d="m 239.77812,39.621875 194.40001,0 0,126.720005 -194.40001,0 0,-126.720005 z"
         id="path202"
         inkscape:connector-curvature="0" /></clipPath><clipPath
       clipPathUnits="userSpaceOnUse"
       id="clipPath210"><path
         d="m 239.77812,39.621875 194.40001,0 0,126.720005 -194.40001,0 0,-126.720005 z"
         id="path212"
         inkscape:connector-curvature="0" /></clipPath></defs><sodipodi:namedview
     pagecolor="#ffffff"
     bordercolor="#666666"
     borderopacity="1"
     objecttolerance="10"
     gridtolerance="10"
     guidetolerance="10"
     inkscape:pageopacity="0"
     inkscape:pageshadow="2"
     inkscape:window-width="1366"
     inkscape:window-height="706"
     id="namedview4"
     showgrid="false"
     inkscape:zoom="1.4845292"
     inkscape:cx="218.73426"
     inkscape:cy="29.582499"
     inkscape:window-x="-8"
     inkscape:window-y="-8"
     inkscape:window-maximized="1"
     inkscape:current-layer="g10" /><g
     id="g10"
     inkscape:groupmode="layer"
     inkscape:label="UserSurveyNew"
     transform="matrix(1.25,0,0,-1.25,0,216.92734)"><path
       d="m 0,0 544.14475,0 0,173.54187 L 0,173.54187 0,0 Z"
       style="fill:#ffffff;fill-opacity:1;fill-rule:nonzero;stroke:none"
       id="path12"
       inkscape:connector-curvature="0" /><path
       d="m 239.77812,39.621875 194.4,0 0,126.719995 -194.4,0 0,-126.719995 z"
       style="fill:#ffffff;fill-opacity:1;fill-rule:nonzero;stroke:none"
       id="path14"
       inkscape:connector-curvature="0" /><g
       id="g16"><g
         id="g18"
         clip-path="url(#clipPath20)"><path
           d="m 239.77812,47.541875 0,0 0,15.84 0,0 0,-15.84 z"
           style="fill:#ffffcc;fill-opacity:1;fill-rule:nonzero;stroke:none"
           id="path24"
           inkscape:connector-curvature="0" /></g></g><g
       id="g26"><g
         id="g28"
         clip-path="url(#clipPath30)"><path
           d="m 239.77812,79.221875 0,0 0,15.84 0,0 0,-15.84 z"
           style="fill:#ffffcc;fill-opacity:1;fill-rule:nonzero;stroke:none"
           id="path34"
           inkscape:connector-curvature="0" /></g></g><g
       id="g36"><g
         id="g38"
         clip-path="url(#clipPath40)"><path
           d="m 239.77812,110.90188 0,0 0,15.84 0,0 0,-15.84 z"
           style="fill:#ffffcc;fill-opacity:1;fill-rule:nonzero;stroke:none"
           id="path44"
           inkscape:connector-curvature="0" /></g></g><g
       id="g46"><g
         id="g48"
         clip-path="url(#clipPath50)"><path
           d="m 239.77812,142.58187 0,0 0,15.84 0,0 0,-15.84 z"
           style="fill:#ffffcc;fill-opacity:1;fill-rule:nonzero;stroke:none"
           id="path54"
           inkscape:connector-curvature="0" /></g></g><g
       id="g56"><g
         id="g58"
         clip-path="url(#clipPath60)"><path
           d="m 239.77812,47.541875 0,0 0,15.84 0,0 0,-15.84 z"
           style="fill:#fed976;fill-opacity:1;fill-rule:nonzero;stroke:none"
           id="path64"
           inkscape:connector-curvature="0" /></g></g><g
       id="g66"><g
         id="g68"
         clip-path="url(#clipPath70)"><path
           d="m 239.77812,79.221875 0,0 0,15.84 0,0 0,-15.84 z"
           style="fill:#fed976;fill-opacity:1;fill-rule:nonzero;stroke:none"
           id="path74"
           inkscape:connector-curvature="0" /></g></g><g
       id="g76"><g
         id="g78"
         clip-path="url(#clipPath80)"><path
           d="m 239.77812,110.90188 0,0 0,15.84 0,0 0,-15.84 z"
           style="fill:#fed976;fill-opacity:1;fill-rule:nonzero;stroke:none"
           id="path84"
           inkscape:connector-curvature="0" /></g></g><g
       id="g86"><g
         id="g88"
         clip-path="url(#clipPath90)"><path
           d="m 239.77812,142.58187 0,0 0,15.84 0,0 0,-15.84 z"
           style="fill:#fed976;fill-opacity:1;fill-rule:nonzero;stroke:none"
           id="path94"
           inkscape:connector-curvature="0" /></g></g><g
       id="g96"><g
         id="g98"
         clip-path="url(#clipPath100)"><path
           d="m 239.77812,47.541875 0,0 0,15.84 0,0 0,-15.84 z"
           style="fill:#fd8c3c;fill-opacity:1;fill-rule:nonzero;stroke:none"
           id="path104"
           inkscape:connector-curvature="0" /></g></g><g
       id="g106"><g
         id="g108"
         clip-path="url(#clipPath110)"><path
           d="m 239.77812,79.221875 38.88,0 0,15.84 -38.88,0 0,-15.84 z"
           style="fill:#fd8c3c;fill-opacity:1;fill-rule:nonzero;stroke:none"
           id="path114"
           inkscape:connector-curvature="0" /></g></g><g
       id="g116"><g
         id="g118"
         clip-path="url(#clipPath120)"><path
           d="m 239.77812,110.90188 38.88,0 0,15.84 -38.88,0 0,-15.84 z"
           style="fill:#fd8c3c;fill-opacity:1;fill-rule:nonzero;stroke:none"
           id="path124"
           inkscape:connector-curvature="0" /></g></g><g
       id="g126"><g
         id="g128"
         clip-path="url(#clipPath130)"><path
           d="m 239.77812,142.58187 0,0 0,15.84 0,0 0,-15.84 z"
           style="fill:#fd8c3c;fill-opacity:1;fill-rule:nonzero;stroke:none"
           id="path134"
           inkscape:connector-curvature="0" /></g></g><g
       id="g136"><g
         id="g138"
         clip-path="url(#clipPath140)"><path
           d="m 239.77812,47.541875 77.76,0 0,15.84 -77.76,0 0,-15.84 z"
           style="fill:#e2191c;fill-opacity:1;fill-rule:nonzero;stroke:none"
           id="path144"
           inkscape:connector-curvature="0" /></g></g><g
       id="g146"><g
         id="g148"
         clip-path="url(#clipPath150)"><path
           d="m 278.65812,79.221875 38.88,0 0,15.84 -38.88,0 0,-15.84 z"
           style="fill:#e2191c;fill-opacity:1;fill-rule:nonzero;stroke:none"
           id="path154"
           inkscape:connector-curvature="0" /></g></g><g
       id="g156"><g
         id="g158"
         clip-path="url(#clipPath160)"><path
           d="m 278.65812,110.90188 116.64,0 0,15.84 -116.64,0 0,-15.84 z"
           style="fill:#e2191c;fill-opacity:1;fill-rule:nonzero;stroke:none"
           id="path164"
           inkscape:connector-curvature="0" /></g></g><g
       id="g166"><g
         id="g168"
         clip-path="url(#clipPath170)"><path
           d="m 239.77812,142.58187 77.76,0 0,15.84 -77.76,0 0,-15.84 z"
           style="fill:#e2191c;fill-opacity:1;fill-rule:nonzero;stroke:none"
           id="path174"
           inkscape:connector-curvature="0" /></g></g><g
       id="g176"><g
         id="g178"
         clip-path="url(#clipPath180)"><path
           d="m 317.53812,47.541875 116.64,0 0,15.84 -116.64,0 0,-15.84 z"
           style="fill:#800026;fill-opacity:1;fill-rule:nonzero;stroke:none"
           id="path184"
           inkscape:connector-curvature="0" /></g></g><g
       id="g186"><g
         id="g188"
         clip-path="url(#clipPath190)"><path
           d="m 317.53812,79.221875 116.64,0 0,15.84 -116.64,0 0,-15.84 z"
           style="fill:#800026;fill-opacity:1;fill-rule:nonzero;stroke:none"
           id="path194"
           inkscape:connector-curvature="0" /></g></g><g
       id="g196"><g
         id="g198"
         clip-path="url(#clipPath200)"><path
           d="m 395.29812,110.90188 38.88,0 0,15.84 -38.88,0 0,-15.84 z"
           style="fill:#800026;fill-opacity:1;fill-rule:nonzero;stroke:none"
           id="path204"
           inkscape:connector-curvature="0" /></g></g><g
       id="g206"><g
         id="g208"
         clip-path="url(#clipPath210)"><path
           d="m 317.53812,142.58187 116.64,0 0,15.84 -116.64,0 0,-15.84 z"
           style="fill:#800026;fill-opacity:1;fill-rule:nonzero;stroke:none"
           id="path214"
           inkscape:connector-curvature="0" /></g></g><g
       id="g216"><path
         d="m 239.77812,39.621875 0,126.719995"
         style="fill:none;stroke:#000000;stroke-width:1;stroke-linecap:square;stroke-linejoin:miter;stroke-miterlimit:10;stroke-dasharray:none;stroke-opacity:1"
         id="path218"
         inkscape:connector-curvature="0" /><path
         d="m 239.77812,166.34187 194.4,0"
         style="fill:none;stroke:#000000;stroke-width:1;stroke-linecap:square;stroke-linejoin:miter;stroke-miterlimit:10;stroke-dasharray:none;stroke-opacity:1"
         id="path220"
         inkscape:connector-curvature="0" /><path
         d="m 434.17812,39.621875 0,126.719995"
         style="fill:none;stroke:#000000;stroke-width:1;stroke-linecap:square;stroke-linejoin:miter;stroke-miterlimit:10;stroke-dasharray:none;stroke-opacity:1"
         id="path222"
         inkscape:connector-curvature="0" /><path
         d="m 239.77812,39.621875 194.4,0"
         style="fill:none;stroke:#000000;stroke-width:1;stroke-linecap:square;stroke-linejoin:miter;stroke-miterlimit:10;stroke-dasharray:none;stroke-opacity:1"
         id="path224"
         inkscape:connector-curvature="0" /><path
         d="m 239.77812,39.621875 0,4"
         style="fill:#000000;fill-opacity:1;fill-rule:nonzero;stroke:#000000;stroke-width:0.5;stroke-linecap:butt;stroke-linejoin:round;stroke-miterlimit:10;stroke-dasharray:none;stroke-opacity:1"
         id="path226"
         inkscape:connector-curvature="0" /><path
         d="m 239.77812,166.34187 0,-4"
         style="fill:#000000;fill-opacity:1;fill-rule:nonzero;stroke:#000000;stroke-width:0.5;stroke-linecap:butt;stroke-linejoin:round;stroke-miterlimit:10;stroke-dasharray:none;stroke-opacity:1"
         id="path228"
         inkscape:connector-curvature="0" /><text
         transform="matrix(1,0,0,-1,230.25469,26.496875)"
         style="font-variant:normal;font-weight:normal;font-size:12px;font-family:BitstreamVeraSerif;-inkscape-font-specification:BitstreamVeraSerif-Roman;writing-mode:lr-tb;fill:#000000;fill-opacity:1;fill-rule:nonzero;stroke:none"
         id="text230"><tspan
           x="0 7.632"
           y="0"
           sodipodi:role="line"
           id="tspan232">0%</tspan></text>
<path
         d="m 278.65812,39.621875 0,4"
         style="fill:#000000;fill-opacity:1;fill-rule:nonzero;stroke:#000000;stroke-width:0.5;stroke-linecap:butt;stroke-linejoin:round;stroke-miterlimit:10;stroke-dasharray:none;stroke-opacity:1"
         id="path234"
         inkscape:connector-curvature="0" /><path
         d="m 278.65812,166.34187 0,-4"
         style="fill:#000000;fill-opacity:1;fill-rule:nonzero;stroke:#000000;stroke-width:0.5;stroke-linecap:butt;stroke-linejoin:round;stroke-miterlimit:10;stroke-dasharray:none;stroke-opacity:1"
         id="path236"
         inkscape:connector-curvature="0" /><text
         transform="matrix(1,0,0,-1,265.31437,26.496875)"
         style="font-variant:normal;font-weight:normal;font-size:12px;font-family:BitstreamVeraSerif;-inkscape-font-specification:BitstreamVeraSerif-Roman;writing-mode:lr-tb;fill:#000000;fill-opacity:1;fill-rule:nonzero;stroke:none"
         id="text238"><tspan
           x="0 7.632 15.264"
           y="0"
           sodipodi:role="line"
           id="tspan240">20%</tspan></text>
<path
         d="m 317.53812,39.621875 0,4"
         style="fill:#000000;fill-opacity:1;fill-rule:nonzero;stroke:#000000;stroke-width:0.5;stroke-linecap:butt;stroke-linejoin:round;stroke-miterlimit:10;stroke-dasharray:none;stroke-opacity:1"
         id="path242"
         inkscape:connector-curvature="0" /><path
         d="m 317.53812,166.34187 0,-4"
         style="fill:#000000;fill-opacity:1;fill-rule:nonzero;stroke:#000000;stroke-width:0.5;stroke-linecap:butt;stroke-linejoin:round;stroke-miterlimit:10;stroke-dasharray:none;stroke-opacity:1"
         id="path244"
         inkscape:connector-curvature="0" /><text
         transform="matrix(1,0,0,-1,304.19437,26.496875)"
         style="font-variant:normal;font-weight:normal;font-size:12px;font-family:BitstreamVeraSerif;-inkscape-font-specification:BitstreamVeraSerif-Roman;writing-mode:lr-tb;fill:#000000;fill-opacity:1;fill-rule:nonzero;stroke:none"
         id="text246"><tspan
           x="0 7.632 15.264"
           y="0"
           sodipodi:role="line"
           id="tspan248">40%</tspan></text>
<path
         d="m 356.41812,39.621875 0,4"
         style="fill:#000000;fill-opacity:1;fill-rule:nonzero;stroke:#000000;stroke-width:0.5;stroke-linecap:butt;stroke-linejoin:round;stroke-miterlimit:10;stroke-dasharray:none;stroke-opacity:1"
         id="path250"
         inkscape:connector-curvature="0" /><path
         d="m 356.41812,166.34187 0,-4"
         style="fill:#000000;fill-opacity:1;fill-rule:nonzero;stroke:#000000;stroke-width:0.5;stroke-linecap:butt;stroke-linejoin:round;stroke-miterlimit:10;stroke-dasharray:none;stroke-opacity:1"
         id="path252"
         inkscape:connector-curvature="0" /><text
         transform="matrix(1,0,0,-1,343.07437,26.496875)"
         style="font-variant:normal;font-weight:normal;font-size:12px;font-family:BitstreamVeraSerif;-inkscape-font-specification:BitstreamVeraSerif-Roman;writing-mode:lr-tb;fill:#000000;fill-opacity:1;fill-rule:nonzero;stroke:none"
         id="text254"><tspan
           x="0 7.632 15.264"
           y="0"
           sodipodi:role="line"
           id="tspan256">60%</tspan></text>
<path
         d="m 395.29812,39.621875 0,4"
         style="fill:#000000;fill-opacity:1;fill-rule:nonzero;stroke:#000000;stroke-width:0.5;stroke-linecap:butt;stroke-linejoin:round;stroke-miterlimit:10;stroke-dasharray:none;stroke-opacity:1"
         id="path258"
         inkscape:connector-curvature="0" /><path
         d="m 395.29812,166.34187 0,-4"
         style="fill:#000000;fill-opacity:1;fill-rule:nonzero;stroke:#000000;stroke-width:0.5;stroke-linecap:butt;stroke-linejoin:round;stroke-miterlimit:10;stroke-dasharray:none;stroke-opacity:1"
         id="path260"
         inkscape:connector-curvature="0" /><text
         transform="matrix(1,0,0,-1,381.95437,26.496875)"
         style="font-variant:normal;font-weight:normal;font-size:12px;font-family:BitstreamVeraSerif;-inkscape-font-specification:BitstreamVeraSerif-Roman;writing-mode:lr-tb;fill:#000000;fill-opacity:1;fill-rule:nonzero;stroke:none"
         id="text262"><tspan
           x="0 7.632 15.264"
           y="0"
           sodipodi:role="line"
           id="tspan264">80%</tspan></text>
<path
         d="m 434.17812,39.621875 0,4"
         style="fill:#000000;fill-opacity:1;fill-rule:nonzero;stroke:#000000;stroke-width:0.5;stroke-linecap:butt;stroke-linejoin:round;stroke-miterlimit:10;stroke-dasharray:none;stroke-opacity:1"
         id="path266"
         inkscape:connector-curvature="0" /><path
         d="m 434.17812,166.34187 0,-4"
         style="fill:#000000;fill-opacity:1;fill-rule:nonzero;stroke:#000000;stroke-width:0.5;stroke-linecap:butt;stroke-linejoin:round;stroke-miterlimit:10;stroke-dasharray:none;stroke-opacity:1"
         id="path268"
         inkscape:connector-curvature="0" /><text
         transform="matrix(1,0,0,-1,417.01406,26.496875)"
         style="font-variant:normal;font-weight:normal;font-size:12px;font-family:BitstreamVeraSerif;-inkscape-font-specification:BitstreamVeraSerif-Roman;writing-mode:lr-tb;fill:#000000;fill-opacity:1;fill-rule:nonzero;stroke:none"
         id="text270"><tspan
           x="0 7.632 15.264 22.896"
           y="0"
           sodipodi:role="line"
           id="tspan272">100%</tspan></text>
<text
         transform="matrix(1,0,0,-1,255.82187,9.871875)"
         style="font-variant:normal;font-weight:normal;font-size:12px;font-family:BitstreamVeraSerif;-inkscape-font-specification:BitstreamVeraSerif-Roman;writing-mode:lr-tb;fill:#000000;fill-opacity:1;fill-rule:nonzero;stroke:none"
         id="text274"><tspan
           x="0 8.0760002 15.18 20.916 27.636 34.740002 42.467999 47.292 54.444 62.124001 69.227997 73.043999 80.267998 84.708 88.524002 96.599998 103.752 109.488 114.312 118.152 124.872 128.71201 136.392 143.54401 151.272 156.09599"
           y="0"
           sodipodi:role="line"
           id="tspan276">Percentage of Participants</tspan></text>
<path
         d="m 239.77812,55.461875 4,0"
         style="fill:#000000;fill-opacity:1;fill-rule:nonzero;stroke:#000000;stroke-width:0.5;stroke-linecap:butt;stroke-linejoin:round;stroke-miterlimit:10;stroke-dasharray:none;stroke-opacity:1"
         id="path278"
         inkscape:connector-curvature="0" /><path
         d="m 434.17812,55.461875 -4,0"
         style="fill:#000000;fill-opacity:1;fill-rule:nonzero;stroke:#000000;stroke-width:0.5;stroke-linecap:butt;stroke-linejoin:round;stroke-miterlimit:10;stroke-dasharray:none;stroke-opacity:1"
         id="path280"
         inkscape:connector-curvature="0" /><text
         transform="matrix(1,0,0,-1,7.2,59.04625)"
         style="font-variant:normal;font-weight:normal;font-size:12px;font-family:BitstreamVeraSerif;-inkscape-font-specification:BitstreamVeraSerif-Roman;writing-mode:lr-tb;fill:#000000;fill-opacity:1;fill-rule:nonzero;stroke:none"
         id="text282"><tspan
           x="0 9.8400002 17.472 21.516001 25.332001 30.072001 33.888 44.16 51.383999 59.112 62.952 70.632004 74.447998 81.167999 88.391998 96.120003 102.276 106.116 113.796 120.9 126.636 130.452 138.17999 144.336 148.17599 155.90401 163.584 167.39999 176.58 184.548 193.21201 205.5"
           y="0"
           sodipodi:role="line"
           id="tspan284">Q4: I would consider using CLAMS</tspan></text>
<text
         transform="matrix(1,0,0,-1,7.2,45.424375)"
         style="font-variant:normal;font-weight:normal;font-size:12px;font-family:BitstreamVeraSerif;-inkscape-font-specification:BitstreamVeraSerif-Roman;writing-mode:lr-tb;fill:#000000;fill-opacity:1;fill-rule:nonzero;stroke:none"
         id="text286"><tspan
           x="0 4.4400001 11.664 17.4 21.216 25.656 29.496 37.223999 44.903999 48.743999 56.472 64.152 67.968002 76.632004 84.708 89.447998 93.264 99.419998 107.148 110.988 118.668 126.348 133.452 138.276"
           y="0"
           sodipodi:role="line"
           id="tspan288">for finding API snippets</tspan></text>
<path
         d="m 239.77812,87.141875 4,0"
         style="fill:#000000;fill-opacity:1;fill-rule:nonzero;stroke:#000000;stroke-width:0.5;stroke-linecap:butt;stroke-linejoin:round;stroke-miterlimit:10;stroke-dasharray:none;stroke-opacity:1"
         id="path290"
         inkscape:connector-curvature="0" /><path
         d="m 434.17812,87.141875 -4,0"
         style="fill:#000000;fill-opacity:1;fill-rule:nonzero;stroke:#000000;stroke-width:0.5;stroke-linecap:butt;stroke-linejoin:round;stroke-miterlimit:10;stroke-dasharray:none;stroke-opacity:1"
         id="path292"
         inkscape:connector-curvature="0" /><text
         transform="matrix(1,0,0,-1,7.2,90.554375)"
         style="font-variant:normal;font-weight:normal;font-size:12px;font-family:BitstreamVeraSerif;-inkscape-font-specification:BitstreamVeraSerif-Roman;writing-mode:lr-tb;fill:#000000;fill-opacity:1;fill-rule:nonzero;stroke:none"
         id="text294"><tspan
           x="0 9.8400002 17.472 21.516001 25.332001 33.551998 41.279999 45.119999 52.799999 60.48 67.584 72.407997 78.564003 82.379997 90.059998 95.795998 103.02 109.8 113.64 121.32 128.424 132.24001 143.616 150.84 156.576 163.67999 167.496 175.224 181.38 188.48399 192.924 200.65199"
           y="0"
           sodipodi:role="line"
           id="tspan296">Q3: Snippets provide more useful</tspan></text>
<text
         transform="matrix(1,0,0,-1,7.2,77.104375)"
         style="font-variant:normal;font-weight:normal;font-size:12px;font-family:BitstreamVeraSerif;-inkscape-font-specification:BitstreamVeraSerif-Roman;writing-mode:lr-tb;fill:#000000;fill-opacity:1;fill-rule:nonzero;stroke:none"
         id="text298"><tspan
           x="0 3.8399999 11.568 16.007999 23.232 28.968 40.344002 47.495998 52.32 56.16 63.383999 71.112 74.928001 79.751999 87.480003 94.632004 102.36 106.176 114.84 122.916 127.656 131.472 138.192 145.34399 149.18401 153.024 156.84 162.996 170.10001 177.78 185.508 192.612 200.34 207.06 214.164"
           y="0"
           sodipodi:role="line"
           id="tspan300">information than API call sequences</tspan></text>
<path
         d="m 239.77812,118.82187 4,0"
         style="fill:#000000;fill-opacity:1;fill-rule:nonzero;stroke:#000000;stroke-width:0.5;stroke-linecap:butt;stroke-linejoin:round;stroke-miterlimit:10;stroke-dasharray:none;stroke-opacity:1"
         id="path302"
         inkscape:connector-curvature="0" /><path
         d="m 434.17812,118.82187 -4,0"
         style="fill:#000000;fill-opacity:1;fill-rule:nonzero;stroke:#000000;stroke-width:0.5;stroke-linecap:butt;stroke-linejoin:round;stroke-miterlimit:10;stroke-dasharray:none;stroke-opacity:1"
         id="path304"
         inkscape:connector-curvature="0" /><text
         transform="matrix(1,0,0,-1,7.2,122.40625)"
         style="font-variant:normal;font-weight:normal;font-size:12px;font-family:BitstreamVeraSerif;-inkscape-font-specification:BitstreamVeraSerif-Roman;writing-mode:lr-tb;fill:#000000;fill-opacity:1;fill-rule:nonzero;stroke:none"
         id="text306"><tspan
           x="0 9.8400002 17.472 21.516001 25.332001 33.551998 41.279999 45.119999 52.799999 60.48 67.584 72.407997 78.564003 82.379997 89.484001 93.924004 98.363998 105.468 112.188 117.012 120.852 127.632 134.73599 138.576 145.356 149.172 155.892 163.116 169.896 177 182.73599 186.552 193.70399 197.52 207.79201 211.632 219.312"
           y="0"
           sodipodi:role="line"
           id="tspan308">Q2: Snippets effectively cover a wide</tspan></text>
<text
         transform="matrix(1,0,0,-1,7.2,108.78437)"
         style="font-variant:normal;font-weight:normal;font-size:12px;font-family:BitstreamVeraSerif;-inkscape-font-specification:BitstreamVeraSerif-Roman;writing-mode:lr-tb;fill:#000000;fill-opacity:1;fill-rule:nonzero;stroke:none"
         id="text310"><tspan
           x="0 6.7800002 13.932 19.667999 23.507999 30.612 35.436001 42.216 46.032001 53.256001 57.695999 61.512001 66.335999 74.064003 81.167999 84.984001 88.823997 92.664001 100.344 106.08 113.232 118.968 125.748 129.048 135.20399 139.02 147.68401 155.75999 160.5 164.31599 175.692 182.79601 187.62 195.34801 202.57201 210.252"
           y="0"
           sodipodi:role="line"
           id="tspan312">variety of the library's API methods</tspan></text>
<path
         d="m 239.77812,150.50187 4,0"
         style="fill:#000000;fill-opacity:1;fill-rule:nonzero;stroke:#000000;stroke-width:0.5;stroke-linecap:butt;stroke-linejoin:round;stroke-miterlimit:10;stroke-dasharray:none;stroke-opacity:1"
         id="path314"
         inkscape:connector-curvature="0" /><path
         d="m 434.17812,150.50187 -4,0"
         style="fill:#000000;fill-opacity:1;fill-rule:nonzero;stroke:#000000;stroke-width:0.5;stroke-linecap:butt;stroke-linejoin:round;stroke-miterlimit:10;stroke-dasharray:none;stroke-opacity:1"
         id="path316"
         inkscape:connector-curvature="0" /><text
         transform="matrix(1,0,0,-1,7.2,153.91437)"
         style="font-variant:normal;font-weight:normal;font-size:12px;font-family:BitstreamVeraSerif;-inkscape-font-specification:BitstreamVeraSerif-Roman;writing-mode:lr-tb;fill:#000000;fill-opacity:1;fill-rule:nonzero;stroke:none"
         id="text318"><tspan
           x="0 9.8400002 17.472 21.516001 25.332001 33.335999 41.063999 48.167999 51.984001 59.664001 65.400002 72.624001 79.403999 83.244003 90.924004 98.028 105.708 109.524 115.68 123.408 127.248 134.92799 142.608 149.71201 154.536 160.692 164.508 171.612 176.052 180.492 187.59599 194.31599 199.14 202.98 209.75999 216.864 220.70399"
           y="0"
           sodipodi:role="line"
           id="tspan320">Q1: The provided snippets effectively</tspan></text>
<text
         transform="matrix(1,0,0,-1,7.2,140.2925)"
         style="font-variant:normal;font-weight:normal;font-size:12px;font-family:BitstreamVeraSerif;-inkscape-font-specification:BitstreamVeraSerif-Roman;writing-mode:lr-tb;fill:#000000;fill-opacity:1;fill-rule:nonzero;stroke:none"
         id="text322"><tspan
           x="0 6.1560001 13.884 25.26 36.636002 43.787998 49.523998 53.363998 59.688 66.792 70.608002 75.431999 83.160004 90.264 94.080002 99.816002 106.92 110.76 117.864 124.644 131.79601 139.524 144.34801 148.164 154.32001 161.54401 169.272 175.008 181.728 188.832 192.64799 199.368 206.592 214.272"
           y="0"
           sodipodi:role="line"
           id="tspan324">summarize the relevant source code</tspan></text>
<path
         d="m 447.45412,51.27625 89.49063,0 0,109.56562 -89.49063,0 0,-109.56562 z"
         style="fill:#ffffff;fill-opacity:1;fill-rule:nonzero;stroke:none"
         id="path326"
         inkscape:connector-curvature="0" /><path
         d="m 451.85412,140.62937 22,0 0,7.7 -22,0 0,-7.7 z"
         style="fill:#800026;fill-opacity:1;fill-rule:nonzero;stroke:none"
         id="path328"
         inkscape:connector-curvature="0" /><text
         transform="matrix(1,0,0,-1,482.65413,147.92625)"
         style="font-variant:normal;font-weight:normal;font-size:11px;font-family:BitstreamVeraSerif;-inkscape-font-specification:BitstreamVeraSerif-Roman;writing-mode:lr-tb;fill:#000000;fill-opacity:1;fill-rule:nonzero;stroke:none"
         id="text330"><tspan
           x="0 7.5349998 11.957 17.215 23.837 30.921 37.960999 41.480999"
           y="0"
           sodipodi:role="line"
           id="tspan332">Strongly</tspan></text>
<text
         transform="matrix(1,0,0,-1,482.65413,135.4575)"
         style="font-variant:normal;font-weight:normal;font-size:11px;font-family:BitstreamVeraSerif;-inkscape-font-specification:BitstreamVeraSerif-Roman;writing-mode:lr-tb;fill:#000000;fill-opacity:1;fill-rule:nonzero;stroke:none"
         id="text334"><tspan
           x="0 7.9419999 14.982 20.24 26.752001"
           y="0"
           sodipodi:role="line"
           id="tspan336">Agree</tspan></text>
<path
         d="m 451.85412,119.31687 22,0 0,7.70001 -22,0 0,-7.70001 z"
         style="fill:#e2191c;fill-opacity:1;fill-rule:nonzero;stroke:none"
         id="path338"
         inkscape:connector-curvature="0" /><text
         transform="matrix(1,0,0,-1,482.65413,119.31687)"
         style="font-variant:normal;font-weight:normal;font-size:11px;font-family:BitstreamVeraSerif;-inkscape-font-specification:BitstreamVeraSerif-Roman;writing-mode:lr-tb;fill:#000000;fill-opacity:1;fill-rule:nonzero;stroke:none"
         id="text340"><tspan
           x="0 7.9419999 14.982 20.24 26.752001"
           y="0"
           sodipodi:role="line"
           id="tspan342">Agree</tspan></text>
<path
         d="m 451.85412,103.02 22,0 0,7.7 -22,0 0,-7.7 z"
         style="fill:#fd8c3c;fill-opacity:1;fill-rule:nonzero;stroke:none"
         id="path344"
         inkscape:connector-curvature="0" /><text
         transform="matrix(1,0,0,-1,482.65413,103.02)"
         style="font-variant:normal;font-weight:normal;font-size:11px;font-family:BitstreamVeraSerif;-inkscape-font-specification:BitstreamVeraSerif-Roman;writing-mode:lr-tb;fill:#000000;fill-opacity:1;fill-rule:nonzero;stroke:none"
         id="text346"><tspan
           x="0 9.625 16.136999 23.221001 27.643 32.901001 39.457001"
           y="0"
           sodipodi:role="line"
           id="tspan348">Neutral</tspan></text>
<path
         d="m 451.85412,86.879375 22,0 0,7.7 -22,0 0,-7.7 z"
         style="fill:#fed976;fill-opacity:1;fill-rule:nonzero;stroke:none"
         id="path350"
         inkscape:connector-curvature="0" /><text
         transform="matrix(1,0,0,-1,482.65413,86.879375)"
         style="font-variant:normal;font-weight:normal;font-size:11px;font-family:BitstreamVeraSerif;-inkscape-font-specification:BitstreamVeraSerif-Roman;writing-mode:lr-tb;fill:#000000;fill-opacity:1;fill-rule:nonzero;stroke:none"
         id="text352"><tspan
           x="0 8.8219995 12.342 17.985001 24.541 31.580999 36.839001 43.351002"
           y="0"
           sodipodi:role="line"
           id="tspan354">Disagree</tspan></text>
<path
         d="m 451.85412,63.129375 22,0 0,7.7 -22,0 0,-7.7 z"
         style="fill:#ffffcc;fill-opacity:1;fill-rule:nonzero;stroke:none"
         id="path356"
         inkscape:connector-curvature="0" /><text
         transform="matrix(1,0,0,-1,482.65413,70.42625)"
         style="font-variant:normal;font-weight:normal;font-size:11px;font-family:BitstreamVeraSerif;-inkscape-font-specification:BitstreamVeraSerif-Roman;writing-mode:lr-tb;fill:#000000;fill-opacity:1;fill-rule:nonzero;stroke:none"
         id="text358"><tspan
           x="0 7.5349998 11.957 17.215 23.837 30.921 37.960999 41.480999"
           y="0"
           sodipodi:role="line"
           id="tspan360">Strongly</tspan></text>
<text
         transform="matrix(1,0,0,-1,482.65413,57.9575)"
         style="font-variant:normal;font-weight:normal;font-size:11px;font-family:BitstreamVeraSerif;-inkscape-font-specification:BitstreamVeraSerif-Roman;writing-mode:lr-tb;fill:#000000;fill-opacity:1;fill-rule:nonzero;stroke:none"
         id="text362"><tspan
           x="0 8.8219995 12.342 17.985001 24.541 31.580999 36.839001 43.351002"
           y="0"
           sodipodi:role="line"
           id="tspan364">Disagree</tspan></text>
</g></g></svg>